<svg xmlns="http://www.w3.org/2000/svg" viewBox="0 0 256 256">
<defs>
<filter id="glow">
<feGaussianBlur stdDeviation="4" result="coloredBlur"/>
<feMerge>
<feMergeNode in="coloredBlur"/>
<feMergeNode in="SourceGraphic"/>
</feMerge>
</filter>
</defs>
<rect width="256" height="256" fill="#0a0a0a"/>
<path d="M40 60 L40 196 L60 196 L60 100 L120 196 L140 196 L140 60 L120 60 L120 156 L60 60 Z" fill="#00ffff" filter="url(#glow)"/>
<path d="M180 60 Q160 60 160 80 L160 176 Q160 196 180 196 L216 196 L216 176 L180 176 L180 128 L210 128 L210 108 L180 108 L180 80 L216 80 L216 60 Z" fill="#00ffff" filter="url(#glow)"/>
<rect x="20" y="20" width="216" height="1" fill="#00ffff" opacity="0.3"/>
<rect x="20" y="235" width="216" height="1" fill="#00ffff" opacity="0.3"/>
<rect x="20" y="20" width="1" height="216" fill="#00ffff" opacity="0.3"/>
<rect x="235" y="20" width="1" height="216" fill="#00ffff" opacity="0.3"/>
</svg>